<?xml version="1.0" encoding="UTF-8"?>
<svg id="Layer_1" data-name="Layer 1" xmlns="http://www.w3.org/2000/svg" viewBox="0 0 1477.6 1902.93">
  <defs>
    <style>
      .cls-1 {
        stroke-width: 0px;
      }
    </style>
  </defs>
  <path class="cls-1" d="M335.75,1347.75c12.19-67.8,24.12-134.22,36.33-202.13-4.79.62-7.41.17-8.88,1.27-61.84,46.29-123.62,29.53-183.39-2.71C88.09,1094.69,34.95,1013.3.3,917.91c-.49-1.34-.28-2.93-.09-.51h256.5c1.45,1.56-1.14-1.74-4.24-4.49-62.99-55.71-126.14-111.24-188.87-167.24-4.47-3.99-8.36-11.36-8.38-17.17-.31-99.33-6.92-199.31,2.31-297.79,8.2-87.52,31.99-173.89,53.01-259.77,12.98-53.05,33.65-104.22,50.91-156.22,1.13-3.4,2.73-6.65,6.09-14.71,3.3,52.73,6.94,100.33,9.13,148,7.34,159.73,27.74,317.53,68.26,472.43,1.25,4.77,3.89,10.59,7.72,13.05,89.02,57.14,178.29,113.89,267.54,170.67,1.57,1,3.45,1.49,5.9,2.52,36.5-20.59,76.35-20.75,113.32-6.04,35.13,13.98,66.85,36.51,103.06,56.97,50.77-48.56,113.05-82.33,197.09-52.07,33.54-20.92,69.99-43.55,106.33-66.35,55.12-34.58,110.42-68.88,164.9-104.44,6.65-4.34,10.19-15.27,12.71-23.86,51.76-176.15,60.28-358.04,71.18-539.6,1.23-20.51,2.2-41.03,3.35-61.55.06-1.05.71-2.07,2.23-6.23,11.68,32.51,24.62,61.95,32.86,92.66,27.29,101.7,55.71,203.25,77.77,306.13,9,41.97,3.16,87.18,3.45,130.93.41,62.79.67,125.6-.21,188.38-.12,8.39-5.21,19.02-11.53,24.64-66.24,58.91-133.2,117.01-199.95,175.36-1.38,1.21-2.52,2.71-7.5,8.14,94.34-31.17,186.9-14.97,282.44-20.84-5.93,16.05-9.88,28.91-15.31,41.1-40.93,91.8-102.59,164.2-196.07,205.8-52.96,23.57-105.64,28.96-155.9-7.82-1.17-.86-2.74-1.24-4.19-1.61-.65-.17-1.45.26-4.81.98,12.81,66.5,25.62,133.08,38.75,201.26-95.83,84.66-177.71,179.32-208.87,307.95-15.11-6.32-27.75-42.7-21.62-58.03,37.59-94.07,90.67-177.98,161.46-250.82,6.86-7.06,10.57-21.13,9.48-31.27-3.98-37.04-10.58-73.81-16.29-110.66-.54-3.51-1.7-6.93-4.1-16.48-8.66,31.71-18.59,57.05-21.98,83.23-4.38,33.82-27.54,53.61-48.87,74.29-51.42,49.83-83.62,110.63-107.07,177-1.73,4.9-3.3,10.55-2.61,15.53,7.91,57.15,15.73,114.31,24.77,171.29,3.56,22.44,10.1,44.41,14.13,61.7-32.72,36.75-63.07,70.84-103.21,115.92-48.22,18.58-112.36,22.12-176.61-4.65-2.23-.93-5-3.11-5.54-5.22-10.99-42.81-45.88-65.79-76.36-92.42-2.85-2.49-6.18-4.45-7.9-5.67,9.6-50.93,18.98-99.02,27.62-147.24,5.23-29.18,14.04-58.82,12.52-87.79-1.4-26.66-12.85-53.33-22.72-78.9-23.47-60.85-68.86-105.88-112.88-151.79-4.93-5.14-8.42-12.62-10.25-19.62-8.87-34.05-16.95-68.31-26.86-108.86-3.2,9.65-4.77,12.88-5.32,16.28-5.98,36.8-13.27,73.49-16.86,110.53-1.21,12.48,3.42,29.16,11.62,38.35,63.78,71.43,113.9,150.81,150.62,239.38,12.15,29.31-7.22,44.63-19.46,72.55-28.15-135.49-105.96-231.39-201.21-315.44ZM742.56,1290.48c-24.41-71.72-43.31-146.17-74.87-214.8-33.06-71.89-97.22-116.45-161.02-147.82-26.24,21.77-48.9,40.58-71.18,59.06,4.6,6.21,5.39,8.17,6.85,9.11,8.63,5.56,17.03,11.64,26.19,16.15,107.61,53.03,177.91,137.15,204.78,254.02,22.62,98.41,31.11,198.36,14.95,299.16-2.84,17.69-4.23,35.62-6.21,52.81h103.9c-.64-9.43-1.62-17.61-1.67-25.8-.5-74.42-5.12-149.13-.35-223.22,10.27-159.38,79.83-284.37,225.03-360.97,7.87-4.15,15.3-9.14,25.95-15.56-22.45-22.7-42.99-43.45-62.33-63.01-154.11,74.75-209.37,209.06-230.02,360.85ZM738.21,1154.66c30.02-118.79,100.73-203.91,205.14-264.29-13.74-24.57-26.19-46.85-41.49-74.2-33.62,22.19-67.7,39.47-95.05,64.2-27.45,24.81-48.19,57.04-72.55,86.85-33.87-73.91-93.62-120.38-170.19-149.87-13.09,23.4-25.22,45.09-39.01,69.74,109.76,58.15,181.3,146.14,213.16,267.57ZM1356.57,740.44c-2.31-3.75-3.93-6.64-5.79-9.37-22.81-33.58-52.52-58.37-92.49-68.07-9.64-2.34-22.76-1.77-30.92,3.09-43.44,25.88-85.84,53.52-128.56,80.6-22.56,14.3-45.05,28.71-71.78,45.75,55.72,33.69,99.38,72.74,106.55,142.13,77.68-67.63,150.02-130.61,222.98-194.13ZM431.54,791.25c-6.09-4.78-9.08-7.54-12.45-9.71-57.54-37.01-115.64-73.2-172.4-111.38-16.32-10.98-28.94-9.42-46.81-4.67-42.27,11.22-64.8,42.43-89.16,76.45,71.24,62.73,141.88,124.92,218.37,192.27,5.32-71.96,53.06-107.33,102.45-142.96ZM621.87,1644.41c34.95-8.01,51.98-26.29,50.93-59.96-1.87-59.64-2.94-119.55-9.73-178.73-13.53-117.95-45.07-229.52-141.44-309.44-30.18-25.03-65.89-43.4-100.37-65.65-14.25,26.96-25.63,48.52-36.78,69.62,3.15,3.34,4.22,5.05,5.75,5.99,6.17,3.74,12.25,7.77,18.79,10.76,94.59,43.28,156.13,114.53,185.11,214.75,23.43,81.02,29.66,163.63,27.8,247.35-.48,21.54-.07,43.1-.07,65.31ZM846.63,1643.77c0-7.35.08-13.68-.01-20-1.31-94.59,3.19-188.34,29.36-280.31,27.64-97.14,81.92-172.02,172.17-219.45,12.34-6.49,24.23-13.84,38.66-22.13-11.05-22.6-21.59-44.13-32.45-66.36-4.42,1.17-7.84,1.55-10.79,2.92-88.31,41.24-152.2,106.74-188.99,196.71-46.49,113.7-61.51,233.21-59.67,355.31.43,28.2,19.22,48.73,51.73,53.31ZM1119.22,1121.26c25.08,6.92,48.85,19.46,72.24,18.81,69.75-1.96,122.23-41.68,166.3-91.24,27.06-30.43,48.33-66,73.33-100.82-93.93-33.8-275.12,17.6-329.82,90.07,2.57,11.41,5.34,23.73,10.22,45.36,63.87-86.91,145.65-120.42,246.95-107.67-96.32,15.87-174.28,62.46-239.22,145.49ZM110.04,977.67c1.12-2.69,2.23-5.39,3.35-8.08,30.3,3.18,60.56,7,90.92,9.38,32.14,2.52,60.42,11.89,84.12,35.31,21.74,21.48,45.64,40.77,71.41,63.5,3.36-16.48,5.95-29.18,8.72-42.75-46.74-32.27-84.15-79.43-144.08-85.15-58.2-5.55-116.9-5.82-178.82-8.56,3.89,10.36,5.16,14.69,7.08,18.71,28.21,58.95,69.51,107.08,123.09,144.03,33.29,22.96,70.18,40.45,111.66,36.98,20.73-1.74,40.71-12.35,61.14-18.99-62.22-84.32-141.05-129.66-238.59-144.38ZM1379.61,698.2v-292.83c-12.94-4.32-25.89-10.15-39.46-12.81-21.26-4.16-42.16,11.95-45.82,32.65-5.35,30.33-11.06,60.59-16.85,90.84-7.35,38.35-14.94,76.66-23.02,118.04,47.97,9.75,95.71,18.82,125.15,64.12ZM209.82,633.81c0-5.53.4-8.19-.06-10.7-12.98-71.41-25.98-142.82-39.25-214.17-.62-3.36-2.92-7.4-5.69-9.21-19.99-13.11-58.85-9.03-76.5,7.06v291.54c28.68-44.91,75.02-55.84,121.5-64.51ZM675.81,1702.82c-12.54-18.18-42.09-19.91-57.79-5.12-24.24,22.83-27.34,55.66-7.59,81.84,26.27,34.82,47.64,76.96,101.2,73.62,27.88-1.74,55.77-4.83,83.36-9.17,7.67-1.21,15.61-7.89,21.12-14.11,14.1-15.91,26.82-33.03,40.24-49.55,19.83-24.42,15.57-64.1-9.18-84.35-16.44-13.45-44.64-10.57-53.33,6.73,4.4.57,8.39.95,12.32,1.62,19.28,3.32,35.88,26.42,24.86,40.23-17.66,22.16-38.55,49.04-63.37,56.64-48.93,14.98-96.57,3.85-125.09-45.73-5.15-8.95-7.63-23.8-3.68-32.4,3.97-8.63,17.4-13.07,26.97-18.88,2.25-1.36,5.64-.84,9.95-1.37ZM463.78,809.99c-57.86,36.35-92.82,85.85-105.47,151.15,8.14,6.71,16.73,13.8,26.73,22.04,39.42-49.8,77.83-98.32,117.41-148.33-15.53-9.98-27.8-17.87-38.67-24.86ZM1101.81,961.62c-8.82-68.94-50.71-112.44-103.24-150.95-11.12,7.4-23.46,15.62-38.56,25.67,39.36,50.04,77.12,98.07,115.95,147.43,10.79-9.25,19.03-16.3,25.86-22.15ZM1323.03,137.46c-1.98.25-3.95.49-5.93.74-5.1,77.85-10.21,155.71-15.24,232.48,24.38-1.8,46.9-3.46,72.16-5.32-16.52-73.81-33.76-150.85-51-227.89ZM164.79,372.22c-4.88-79.97-9.59-157.07-14.29-234.17-1.7-.15-3.41-.31-5.11-.46-17.27,76.32-34.55,152.63-52.02,229.79,15.23-1.87,25.96-4.85,36.4-4.03,11.03.86,21.79,5.34,35.02,8.87ZM1004.84,1171c-30.87,7.83-94.34,90.33-90.37,117.88,28.77-1.05,52.35-12.7,71.3-34.01,21.67-24.36,21.17-53.6,19.07-83.87ZM472.86,1173.47c-9.87,30.81-1.15,66.13,21.81,89.05,18.36,18.32,40.43,27.83,66.51,29.67.99-30.94-57.45-108.32-88.32-118.72Z"/>
</svg>